<svg xmlns="http://www.w3.org/2000/svg" viewBox="0 0 48 48" width="48" height="48">
  <circle cx="24" cy="24" r="24" fill="#25D366"/>
  <path fill="#FFFFFF" d="
    M24 10.5
    C16.545 10.5 10.5 16.545 10.5 24
    c0 2.385.627 4.725 1.818 6.774
    L10.5 37.5l6.93-1.785
    A13.404 13.404 0 0 0 24 37.5
    c7.455 0 13.5-6.045 13.5-13.5
    S31.455 10.5 24 10.5z
  "/>
  <path fill="#25D366" d="
    M30.615 27.045
    c-.36-.18-2.13-1.05-2.46-1.17
    -.33-.12-.57-.18-.81.18
    -.24.36-.93 1.17-1.14 1.41
    -.21.24-.42.27-.78.09
    -.36-.18-1.524-.564-2.904-1.794
    -1.074-.954-1.8-2.13-2.01-2.49
    -.21-.36-.024-.555.156-.735
    .162-.162.36-.42.54-.63
    .18-.21.24-.36.36-.6
    .12-.24.06-.45-.03-.63
    -.09-.18-.81-1.95-1.11-2.67
    -.294-.705-.591-.606-.81-.615
    l-.69-.012
    a1.32 1.32 0 0 0-.957.45
    c-.33.36-1.26 1.23-1.26 3
    s1.29 3.48 1.47 3.72
    c.18.24 2.535 3.87 6.15 5.43
    .858.372 1.527.594 2.049.762
    .861.273 1.644.234 2.262.141
    .69-.102 2.13-.87 2.43-1.71
    .3-.84.3-1.56.21-1.71
    -.09-.15-.33-.24-.69-.42z
  "/>
</svg>
